<?xml version="1.0" encoding="utf-8"?>
<!-- Generator: Adobe Illustrator 16.0.0, SVG Export Plug-In . SVG Version: 6.00 Build 0)  -->
<!DOCTYPE svg PUBLIC "-//W3C//DTD SVG 1.1//EN" "http://www.w3.org/Graphics/SVG/1.1/DTD/svg11.dtd">
<svg version="1.1" id="Layer_1" xmlns="http://www.w3.org/2000/svg" xmlns:xlink="http://www.w3.org/1999/xlink" x="0px" y="0px"
	 width="44.875px" height="45px" viewBox="0 0 44.875 45" enable-background="new 0 0 44.875 45" xml:space="preserve">
<g>
	<g>
		<path fill="#CF0A2C" d="M44.478,43.499c0,0.564-0.458,1.025-1.031,1.025H1.298c-0.569,0-1.031-0.461-1.031-1.025V1.339
			c0-0.565,0.462-1.023,1.031-1.023h42.148c0.573,0,1.031,0.458,1.031,1.023V43.499z"/>
		<g>
			<path fill="#FFFFFF" d="M41.563,32.658H5.221c-1.248,0-2.128-1.047-2.139-2.05v-8.147c1.564,0,2.964-0.75,3.472-1.117
				c3.241-2.316,5.935-6.83,9.387-8.296c1.007-0.432,2.971-1.13,5.448-0.488l2.966,2.952c0,0-1.549-0.729-3.844-0.729
				c-2.574,0-7.542,2.122-7.542,7.672c0,4.472,3.074,7.611,8.125,7.611h17.874L41.563,32.658"/>
			<path fill="#FFFFFF" d="M37.373,28.484h-16.66c-1.888,0-4.417-0.901-5.177-2.661c0,0,7.49-7.64,7.849-8.005
				c0.9-0.889,2.497-0.889,3.273,0L37.373,28.484z M20.815,22.594c-0.188,0.186-0.089,0.4,0.16,0.392h2.05l1.441-1.221
				c0.303-0.299,0.594-0.241,0.594,0.078v2.433c-0.008,0.386,0.334,0.386,0.541,0.126l1.498-1.416h1.964
				c0.156-0.004,0.268-0.206,0.057-0.411l-3.545-3.494c-0.253-0.253-0.8-0.253-1.046,0C24.442,19.167,20.815,22.594,20.815,22.594z"
				/>
		</g>
	</g>
</g>
</svg>
